<?xml version="1.0" standalone="no"?>
<!DOCTYPE svg PUBLIC "-//W3C//DTD SVG 20010904//EN"
 "http://www.w3.org/TR/2001/REC-SVG-20010904/DTD/svg10.dtd">
<svg version="1.0" xmlns="http://www.w3.org/2000/svg"
 width="1000.000000pt" height="1000.000000pt" viewBox="0 0 1000.000000 1000.000000"
 preserveAspectRatio="xMidYMid meet">
<metadata>
Created by potrace 1.14, written by Peter Selinger 2001-2017
</metadata>
<g transform="translate(0.000000,1000.000000) scale(0.100000,-0.100000)"
fill="#000000" stroke="none">
<path d="M3070 9014 c-19 -2 -89 -9 -155 -15 -66 -6 -126 -15 -135 -20 -8 -4
-58 -20 -110 -34 -52 -14 -120 -37 -150 -49 -30 -13 -75 -32 -100 -42 -25 -10
-52 -23 -60 -29 -8 -7 -30 -17 -47 -23 -18 -6 -48 -22 -65 -35 -18 -14 -49
-33 -68 -42 -19 -10 -48 -28 -65 -41 -16 -13 -49 -38 -73 -56 -158 -122 -312
-272 -378 -368 -13 -19 -44 -62 -68 -95 -41 -54 -73 -106 -119 -190 -30 -54
-86 -181 -93 -211 -4 -16 -14 -39 -22 -52 -8 -12 -20 -48 -28 -80 -7 -31 -25
-102 -40 -157 -25 -93 -27 -118 -31 -362 -5 -300 0 -350 61 -548 l21 -70 107
0 c147 0 150 4 119 122 -12 49 -28 94 -33 101 -36 43 -30 617 6 687 9 17 16
37 16 46 0 30 42 174 55 189 7 8 19 35 26 60 15 51 80 181 110 218 10 14 19
29 19 34 0 26 227 297 305 364 31 27 71 61 88 77 17 15 40 30 49 33 10 3 18 9
18 14 0 8 69 52 161 101 16 9 46 28 67 41 20 14 55 31 77 38 22 7 53 21 70 31
16 11 40 19 52 19 12 0 25 5 28 10 3 6 15 10 26 10 11 0 38 9 61 20 22 10 77
24 122 30 44 6 108 15 141 20 109 17 239 21 345 11 134 -12 322 -40 335 -50 5
-5 48 -20 94 -35 47 -14 94 -32 105 -40 12 -7 39 -19 61 -26 22 -7 59 -25 82
-40 22 -16 52 -31 65 -35 12 -4 31 -14 41 -23 9 -8 39 -29 66 -46 113 -72 141
-95 273 -228 77 -76 152 -144 166 -149 56 -22 86 -4 216 124 68 67 141 137
162 154 95 79 111 91 144 108 19 10 46 26 60 35 61 41 148 88 185 100 22 7 47
18 55 25 8 7 49 23 90 35 41 13 86 29 100 36 32 17 210 44 360 54 177 12 509
-19 575 -54 17 -8 64 -25 105 -37 41 -12 88 -30 105 -41 16 -10 37 -18 46 -18
10 0 40 -16 69 -35 29 -19 55 -35 59 -35 6 0 42 -21 142 -85 51 -32 83 -57
158 -125 86 -77 228 -231 269 -291 67 -100 92 -140 125 -204 72 -139 107 -217
107 -238 0 -12 10 -42 21 -67 12 -25 26 -63 31 -85 16 -66 37 -236 38 -297 0
-31 5 -60 10 -63 12 -7 13 -97 2 -111 -5 -5 -15 -58 -22 -119 -12 -108 -40
-215 -61 -241 -6 -7 -13 -40 -16 -74 l-6 -60 122 0 122 0 15 38 c8 20 19 45
24 54 16 29 57 218 66 303 16 163 -3 455 -41 600 -47 183 -65 244 -96 311 -45
100 -120 246 -135 265 -8 8 -14 20 -15 25 0 5 -25 43 -55 84 -29 41 -66 93
-80 114 -30 45 -266 281 -304 305 -14 9 -59 41 -100 72 -41 31 -93 66 -116 77
-22 11 -46 28 -53 36 -8 9 -19 16 -26 16 -7 0 -47 18 -90 40 -43 22 -83 40
-89 40 -6 0 -27 8 -46 19 -19 10 -75 30 -125 45 -49 14 -111 33 -137 41 -90
29 -212 39 -493 39 -210 0 -303 -4 -370 -16 -108 -19 -291 -71 -360 -102 -27
-13 -66 -29 -85 -37 -19 -7 -53 -23 -75 -35 -22 -12 -51 -25 -65 -29 -14 -4
-33 -15 -43 -24 -11 -9 -38 -27 -61 -41 -23 -14 -57 -34 -75 -45 -35 -21 -135
-102 -229 -187 -66 -59 -95 -62 -138 -15 -51 54 -240 202 -305 238 -16 9 -46
28 -67 41 -44 29 -205 108 -220 108 -5 0 -36 14 -67 30 -31 17 -66 30 -76 30
-10 0 -60 13 -111 29 -124 39 -303 60 -518 59 -96 -1 -191 -2 -210 -4z"/>
<path d="M6766 7265 c-21 -21 -40 -52 -46 -77 -6 -24 -16 -54 -22 -68 -6 -14
-24 -65 -40 -115 -15 -49 -37 -112 -47 -140 -10 -27 -23 -68 -29 -90 -5 -22
-19 -64 -30 -92 -11 -29 -18 -53 -15 -53 3 0 1 -6 -5 -12 -5 -7 -13 -29 -17
-48 -4 -19 -14 -47 -21 -62 -8 -15 -20 -51 -28 -80 -15 -56 -81 -249 -96 -283
-5 -11 -18 -52 -30 -91 -23 -83 -39 -103 -62 -76 -9 9 -19 33 -23 52 -4 19
-14 48 -21 65 -7 16 -23 64 -35 105 -25 89 -62 174 -87 199 -9 10 -36 28 -59
40 -39 20 -58 21 -270 21 -277 0 -269 -3 -329 121 -66 137 -93 193 -104 209
-5 8 -16 31 -24 50 -21 49 -64 121 -89 148 -11 12 -39 27 -61 33 -78 21 -136
-14 -192 -116 -23 -43 -149 -288 -179 -349 -5 -11 -45 -90 -88 -176 -142 -286
-164 -315 -188 -253 -11 30 -63 135 -95 192 -30 54 -74 101 -115 122 -36 18
-62 19 -426 19 -330 0 -392 2 -410 15 -17 12 -82 100 -158 216 -109 166 -125
181 -201 187 -82 7 -111 -18 -237 -205 -27 -40 -54 -73 -61 -73 -17 0 -47 35
-85 100 -54 93 -95 144 -132 162 -48 25 -119 23 -153 -3 -32 -25 -104 -121
-206 -276 -41 -62 -84 -116 -95 -120 -11 -3 -321 -6 -690 -6 -728 1 -721 1
-765 -55 -16 -20 -20 -40 -20 -107 l0 -83 47 -31 46 -31 326 -2 c395 -3 663
-2 961 3 213 4 227 5 260 27 19 12 46 38 60 57 14 20 38 53 53 73 16 20 38 54
48 74 12 24 29 40 45 44 28 7 38 0 68 -50 46 -77 97 -145 131 -175 32 -28 42
-31 100 -31 58 0 68 3 100 31 19 17 65 76 101 130 36 54 70 99 75 99 25 0 49
-25 104 -107 73 -110 91 -130 137 -154 35 -18 63 -19 421 -19 366 0 385 -1
409 -19 23 -19 218 -393 218 -419 0 -7 4 -12 8 -12 5 0 16 -15 25 -34 42 -89
151 -118 224 -60 35 29 121 188 257 476 22 46 51 102 67 125 15 22 30 52 34
65 20 62 109 217 128 222 29 7 32 4 72 -82 89 -193 119 -232 187 -251 24 -6
141 -12 265 -13 208 -3 224 -4 240 -23 10 -11 36 -74 57 -140 21 -66 53 -163
72 -215 18 -52 38 -115 44 -140 6 -25 20 -66 30 -92 11 -26 20 -55 20 -65 0
-34 47 -119 83 -150 69 -60 140 -52 206 23 22 25 43 60 46 77 10 48 45 169 55
192 12 25 54 148 81 235 11 36 28 88 38 115 17 44 74 217 114 345 17 54 36
104 53 145 7 17 15 44 19 60 17 80 55 129 84 110 5 -3 15 -31 21 -63 7 -31 25
-91 40 -132 16 -41 36 -101 45 -133 21 -78 76 -133 137 -141 24 -3 439 -4 923
-3 981 2 897 -4 955 73 43 56 41 107 -5 161 -65 76 -17 73 -913 70 -773 -2
-801 -1 -821 17 -11 10 -25 33 -31 50 -5 17 -28 83 -50 146 -23 63 -52 151
-65 195 -12 44 -33 105 -45 135 -12 30 -28 79 -36 109 -8 30 -19 60 -23 65 -5
6 -12 22 -16 36 -4 14 -21 40 -38 58 -29 30 -35 32 -104 32 -69 0 -74 -1 -107
-35z"/>
<path d="M1623 6463 c9 -2 23 -2 30 0 6 3 -1 5 -18 5 -16 0 -22 -2 -12 -5z"/>
<path d="M7600 6103 c-15 -6 -41 -31 -58 -55 -17 -24 -38 -50 -47 -58 -9 -8
-21 -23 -25 -35 -7 -17 -59 -91 -167 -238 -84 -114 -313 -394 -422 -517 -87
-97 -131 -158 -137 -189 -9 -42 19 -96 66 -127 40 -26 44 -27 88 -15 63 16
142 99 412 430 71 86 97 119 178 223 19 24 80 111 137 193 58 83 112 161 122
175 16 22 62 104 95 168 9 17 9 28 1 40 -8 14 -28 17 -113 17 -56 0 -115 -5
-130 -12z"/>
<path d="M1534 6095 c-13 -32 6 -108 40 -159 18 -28 41 -64 50 -81 54 -98 67
-118 90 -146 14 -17 26 -35 26 -40 0 -5 31 -53 69 -107 97 -137 118 -164 186
-245 33 -40 91 -110 130 -157 66 -82 179 -209 261 -296 29 -31 50 -43 80 -48
78 -13 174 63 174 139 0 18 -22 49 -74 104 -128 138 -408 468 -461 545 -29 41
-73 104 -125 176 -25 35 -54 79 -66 99 -56 96 -94 154 -109 165 -9 6 -21 23
-28 36 -12 24 -17 25 -125 28 -95 2 -113 0 -118 -13z"/>
<path d="M4060 5337 c-5 -5 -110 -15 -157 -16 -22 -1 -23 -5 -23 -68 l0 -68
-49 -24 c-53 -26 -58 -25 -116 28 -21 19 -40 29 -44 24 -10 -16 -103 -125
-133 -156 -28 -28 -35 -47 -20 -47 5 0 27 -16 49 -36 l40 -36 -15 -46 c-8 -26
-16 -52 -18 -58 -1 -6 -28 -12 -60 -13 -31 -1 -61 -4 -67 -8 -6 -3 -7 -32 -3
-72 4 -36 10 -91 13 -123 6 -63 13 -68 88 -58 40 5 40 5 68 -48 31 -59 31 -56
-27 -120 l-31 -33 40 -32 c21 -18 66 -56 100 -84 33 -29 62 -53 65 -53 3 1 22
23 42 49 l38 49 57 -24 58 -23 3 -61 3 -61 72 5 c40 4 98 7 130 9 l59 2 -4 66
-3 65 54 27 55 27 46 -39 c26 -22 51 -36 57 -33 20 13 153 176 153 188 0 6
-20 27 -45 45 -29 23 -42 39 -39 49 9 22 27 73 30 87 2 6 24 15 51 18 89 12
85 8 78 88 -3 40 -8 96 -11 125 l-5 52 -67 0 -67 1 -22 46 -22 47 22 30 c12
17 29 40 39 50 10 11 18 22 17 25 0 3 -44 43 -97 88 l-97 82 -42 -48 -43 -48
-54 15 -53 16 -9 66 -9 65 -35 3 c-20 2 -38 1 -40 -1z m66 -397 c26 -1 98 -60
121 -101 54 -94 25 -229 -61 -288 -81 -56 -159 -62 -242 -18 -96 51 -135 154
-103 272 24 88 143 161 234 143 22 -4 45 -7 51 -8z"/>
<path d="M2695 4569 c-22 -11 -58 -25 -80 -31 -22 -7 -46 -18 -53 -25 -7 -7
-28 -15 -47 -19 -19 -3 -35 -10 -35 -14 0 -4 -20 -13 -45 -20 -25 -7 -45 -16
-45 -21 0 -4 -16 -11 -35 -15 -20 -3 -34 -9 -32 -13 1 -3 11 -24 21 -46 9 -22
26 -59 37 -82 10 -24 19 -47 19 -53 0 -5 5 -10 12 -10 6 0 -21 -32 -60 -72
-40 -39 -72 -75 -72 -80 0 -13 -22 -9 -65 12 -22 11 -44 19 -48 20 -4 0 -29 9
-54 21 -45 21 -47 21 -60 3 -8 -11 -19 -38 -26 -61 -6 -24 -14 -43 -18 -43 -4
0 -10 -15 -14 -32 -4 -18 -13 -42 -20 -54 -7 -11 -19 -40 -26 -65 -7 -24 -16
-46 -19 -49 -11 -10 -30 -62 -30 -84 0 -18 8 -24 50 -35 28 -7 50 -16 50 -20
0 -4 24 -13 53 -20 l52 -13 0 -108 0 -108 -40 -12 c-22 -7 -57 -21 -77 -31
-21 -11 -49 -20 -63 -21 -32 -3 -32 -14 5 -91 17 -35 30 -71 30 -80 0 -10 4
-17 9 -17 4 0 14 -20 21 -45 7 -25 16 -45 20 -45 4 0 13 -20 19 -45 6 -25 15
-45 20 -45 5 0 12 -13 16 -30 7 -33 34 -41 54 -16 7 8 27 17 46 20 19 4 35 12
35 18 0 6 3 9 6 6 3 -4 21 0 41 8 l35 15 43 -43 c23 -24 58 -56 76 -71 l34
-28 -21 -37 c-12 -20 -25 -52 -29 -69 -3 -18 -10 -33 -15 -33 -9 0 -20 -49
-14 -65 3 -6 27 -17 54 -24 28 -7 50 -16 50 -20 0 -4 23 -13 50 -20 28 -7 50
-16 50 -20 0 -4 23 -13 50 -20 28 -7 50 -16 50 -20 0 -4 21 -13 48 -21 58 -17
62 -17 61 -6 0 5 3 12 8 15 9 6 38 82 55 142 9 35 12 37 46 34 21 -2 49 -6 65
-10 15 -4 27 -3 27 1 0 5 19 9 41 8 38 0 43 -3 54 -35 16 -42 26 -72 27 -79 0
-3 7 -14 14 -25 8 -11 14 -27 14 -37 0 -10 7 -18 16 -18 26 0 98 22 114 36 8
6 29 15 47 19 17 3 37 13 44 21 6 8 19 14 28 14 9 0 30 7 46 16 17 9 54 25 83
36 28 11 52 23 52 27 0 4 -9 24 -20 46 -11 22 -20 47 -20 57 0 10 -4 18 -8 18
-5 0 -15 17 -22 39 -14 43 -4 75 27 86 10 3 29 21 43 40 44 60 55 61 159 20
104 -40 111 -39 130 27 7 23 19 51 26 62 7 12 16 36 20 54 4 17 10 32 14 32 3
0 13 21 20 48 8 26 20 56 27 67 7 11 16 37 19 58 6 32 5 37 -12 37 -10 0 -27
6 -38 13 -11 8 -36 19 -55 26 -92 31 -87 22 -87 138 l0 104 29 6 c15 3 28 9
28 13 0 4 19 13 43 20 23 7 45 17 48 22 4 6 18 11 33 11 19 2 25 6 20 17 -3 8
-10 34 -17 58 -6 23 -15 42 -19 42 -4 0 -13 18 -19 40 -7 22 -16 40 -21 40 -4
0 -8 7 -8 15 0 8 -11 38 -24 67 -14 29 -27 64 -31 78 -3 14 -14 36 -24 49 -17
22 -19 23 -49 7 -17 -9 -38 -16 -47 -16 -8 0 -15 -4 -15 -10 0 -5 -20 -15 -45
-21 -25 -6 -48 -15 -50 -20 -3 -4 -40 26 -82 67 -42 42 -72 79 -66 82 5 4 13
20 17 37 4 16 16 48 26 70 30 66 35 95 16 95 -9 0 -16 4 -16 8 0 5 -22 14 -50
21 -27 7 -50 16 -50 20 0 4 -22 13 -50 20 -27 7 -50 16 -50 20 0 4 -22 13 -50
20 -27 7 -50 16 -50 21 0 4 -12 10 -27 13 -16 3 -36 9 -45 12 -14 5 -18 2 -18
-13 0 -11 -7 -27 -15 -36 -8 -8 -15 -19 -15 -25 0 -5 -5 -22 -12 -38 -6 -15
-12 -30 -13 -33 -20 -60 -17 -58 -124 -57 -74 1 -101 5 -101 14 0 7 -5 13 -10
13 -6 0 -15 20 -22 45 -7 25 -15 45 -19 45 -3 0 -12 20 -19 45 -7 25 -15 45
-19 45 -3 -1 -24 -10 -46 -21z m344 -647 c3 -5 27 -14 54 -22 26 -7 47 -16 47
-20 0 -4 14 -13 30 -20 17 -7 30 -16 30 -20 0 -4 15 -23 34 -42 18 -19 37 -45
41 -59 4 -13 15 -32 24 -43 13 -15 16 -41 16 -140 0 -66 -4 -130 -9 -141 -5
-11 -10 -23 -10 -27 -2 -16 -100 -138 -111 -138 -7 0 -20 -9 -30 -20 -10 -11
-24 -20 -32 -20 -7 0 -13 -4 -13 -9 0 -25 -192 -43 -271 -26 -54 12 -128 54
-171 98 -62 64 -67 71 -74 105 -4 18 -11 32 -16 32 -5 0 -7 4 -4 9 4 5 0 11
-6 13 -19 7 -17 216 1 228 8 4 10 13 7 19 -4 6 -2 11 3 11 6 0 11 7 11 15 0
32 84 138 125 157 14 6 25 15 25 19 0 5 20 14 45 20 25 6 45 15 45 20 0 18
197 20 209 1z"/>
<path d="M6677 4580 c-16 -5 -34 -13 -41 -19 -7 -6 -51 -23 -97 -38 -46 -14
-93 -31 -104 -38 -11 -7 -42 -18 -69 -24 -27 -7 -69 -23 -93 -37 -25 -13 -68
-29 -96 -35 -29 -6 -61 -17 -72 -24 -11 -7 -54 -24 -95 -37 -41 -14 -88 -33
-105 -41 -16 -9 -48 -20 -70 -26 -47 -12 -131 -79 -173 -137 -62 -85 -66 -99
-66 -239 -1 -128 0 -131 35 -215 20 -47 40 -101 44 -120 4 -19 14 -44 21 -55
8 -11 26 -58 40 -105 14 -47 32 -92 40 -101 8 -9 17 -32 20 -51 9 -55 -23 -83
-129 -113 -48 -14 -99 -33 -113 -42 -45 -29 -125 -41 -212 -33 -260 27 -572
-88 -747 -275 -31 -34 -58 -50 -125 -73 -47 -17 -116 -36 -155 -42 -38 -7 -97
-20 -130 -30 -71 -21 -129 -35 -210 -51 -33 -6 -64 -15 -70 -19 -5 -4 -37 -13
-70 -20 -128 -25 -201 -43 -230 -55 -16 -8 -68 -20 -115 -29 -47 -8 -130 -26
-185 -40 -55 -14 -127 -32 -160 -40 -33 -8 -85 -21 -115 -29 -30 -8 -89 -22
-130 -31 -42 -9 -88 -23 -103 -31 -14 -7 -52 -17 -84 -21 -71 -8 -162 -36
-234 -69 -217 -102 -359 -330 -359 -574 0 -78 27 -230 45 -251 7 -8 16 -26 20
-40 9 -28 51 -97 72 -118 7 -7 13 -17 13 -22 0 -12 109 -99 177 -141 66 -41
134 -57 273 -65 135 -8 256 14 363 65 46 23 88 41 94 41 5 0 18 9 28 20 10 11
23 20 28 20 11 0 168 72 207 95 14 9 86 45 160 81 74 36 142 72 150 79 8 7 28
15 43 19 16 4 45 18 65 31 20 13 57 31 82 41 25 9 52 22 60 29 13 10 51 28
220 108 19 9 51 25 70 36 19 11 53 29 75 39 22 11 86 42 141 71 56 28 105 51
108 51 4 0 24 11 46 25 22 14 59 32 82 42 24 9 50 22 59 30 12 10 55 13 170
13 202 0 335 23 389 65 8 7 28 15 44 19 58 14 158 87 276 201 50 48 75 65 105
70 22 4 56 16 75 28 19 11 51 24 70 28 19 4 61 17 93 29 74 27 88 19 112 -62
10 -35 24 -73 32 -85 7 -13 20 -50 29 -84 9 -34 28 -89 44 -123 45 -98 69
-175 56 -185 -30 -23 -92 -31 -245 -32 -91 -1 -178 -4 -194 -8 -49 -11 -153
-97 -202 -168 -38 -53 -49 -80 -57 -132 -15 -98 -4 -221 24 -269 56 -92 72
-113 121 -150 115 -86 35 -81 1267 -81 1167 0 1172 0 1250 54 57 39 114 105
146 167 25 47 29 66 32 170 l4 118 -35 72 c-53 109 -153 200 -242 223 -16 4
-147 7 -290 6 -244 -1 -262 0 -285 18 -33 26 -26 32 102 96 94 46 106 56 155
120 68 89 78 124 77 265 0 108 -2 118 -31 175 -17 33 -34 77 -37 98 -4 20 -19
65 -35 100 -15 34 -33 84 -40 112 -7 27 -17 55 -22 61 -5 6 -22 49 -38 95 -16
46 -39 104 -50 129 -11 25 -21 55 -21 67 0 12 -11 46 -24 75 -14 29 -33 78
-42 108 -10 30 -23 64 -29 75 -7 11 -23 54 -35 95 -13 41 -27 80 -32 86 -8 10
-35 85 -88 244 -12 36 -33 90 -46 120 -12 30 -30 80 -40 110 -9 30 -22 65 -30
76 -7 12 -20 50 -29 85 -9 35 -20 69 -25 74 -4 6 -13 28 -20 50 -27 83 -92
159 -189 219 l-66 41 -125 2 c-69 1 -138 -2 -153 -7z m221 -270 c14 -12 42
-44 61 -73 30 -43 35 -61 36 -106 l0 -55 -55 -21 c-30 -12 -75 -31 -100 -42
-25 -11 -63 -24 -85 -27 -22 -4 -49 -13 -60 -20 -11 -7 -58 -26 -105 -41 -47
-15 -94 -34 -105 -41 -11 -7 -38 -16 -60 -20 -22 -4 -71 -21 -110 -39 -38 -18
-86 -36 -105 -40 -19 -4 -44 -12 -55 -18 -11 -6 -62 -25 -113 -43 -115 -40
-132 -36 -167 38 -35 75 -35 165 0 207 34 39 92 71 194 104 46 16 93 34 105
42 11 7 39 17 61 20 22 4 67 20 100 35 33 16 80 33 105 40 25 6 68 22 96 35
28 14 73 29 100 35 27 6 60 18 73 27 58 38 142 39 189 3z m215 -504 c8 -8 19
-29 26 -48 7 -18 23 -57 37 -86 13 -29 24 -61 24 -71 0 -11 9 -41 21 -68 12
-26 32 -84 46 -128 14 -44 32 -89 39 -100 7 -11 21 -49 32 -85 11 -36 30 -85
41 -110 11 -25 21 -54 21 -65 0 -11 16 -53 35 -94 19 -40 35 -78 35 -85 0 -8
10 -37 21 -65 21 -49 21 -52 4 -71 -10 -11 -23 -20 -29 -20 -6 0 -28 -9 -48
-20 -20 -11 -58 -25 -85 -31 -26 -7 -64 -20 -83 -29 -19 -10 -60 -25 -90 -35
-30 -9 -77 -28 -104 -41 -28 -13 -58 -24 -67 -24 -10 0 -55 -16 -100 -35 -46
-19 -90 -35 -97 -35 -8 0 -45 -14 -84 -31 -38 -17 -95 -37 -125 -45 -30 -8
-65 -21 -76 -29 -12 -8 -40 -15 -63 -15 -41 0 -43 1 -60 48 -10 26 -26 61 -35
77 -10 17 -21 48 -25 70 -3 22 -17 63 -30 90 -13 28 -34 82 -48 120 -13 39
-38 109 -54 157 -17 47 -37 99 -45 115 -8 15 -17 44 -21 63 -3 19 -19 67 -35
105 -71 173 -82 208 -76 236 5 21 14 31 33 35 15 3 59 17 97 31 39 13 115 40
170 59 55 20 104 39 110 43 5 4 33 14 60 21 28 7 61 19 75 27 14 7 63 26 110
42 149 51 283 101 296 112 11 9 78 25 116 28 9 1 23 -5 31 -13z m-1186 -936
c12 -25 22 -55 23 -66 0 -12 10 -34 23 -50 15 -20 22 -42 22 -72 0 -52 -13
-64 -100 -92 -33 -10 -78 -28 -100 -39 -21 -12 -46 -21 -55 -21 -22 0 -94 -27
-150 -55 -28 -14 -73 -52 -107 -90 -62 -70 -83 -85 -205 -152 -68 -37 -90 -44
-182 -54 -86 -10 -124 -10 -202 1 l-96 13 -132 -66 c-72 -36 -183 -91 -246
-121 -63 -31 -122 -60 -130 -65 -8 -5 -39 -19 -68 -32 -29 -12 -58 -29 -64
-36 -6 -7 -20 -13 -31 -13 -11 0 -41 -13 -66 -29 -25 -16 -66 -37 -91 -47 -25
-10 -56 -26 -69 -36 -13 -10 -29 -18 -35 -18 -7 0 -37 -15 -68 -34 -31 -18
-68 -36 -84 -40 -15 -4 -46 -20 -70 -37 -23 -16 -48 -29 -55 -29 -6 0 -37 -13
-68 -29 -31 -17 -82 -41 -113 -55 -31 -15 -60 -31 -63 -36 -3 -6 -13 -10 -22
-10 -9 0 -39 -14 -66 -31 -28 -17 -68 -37 -90 -45 -21 -7 -50 -23 -64 -34 -14
-11 -32 -20 -40 -20 -8 0 -38 -15 -66 -34 -35 -21 -86 -41 -149 -56 l-95 -23
-84 24 c-69 20 -95 33 -146 77 -114 97 -156 206 -139 365 6 54 15 77 47 125
21 32 54 72 72 89 49 46 163 100 247 116 73 13 193 42 390 93 232 59 299 76
365 90 39 8 106 25 150 38 79 24 142 39 220 51 22 4 54 13 70 20 17 7 78 23
137 35 59 11 132 29 161 39 29 10 78 22 108 25 30 4 81 16 114 26 33 10 96 26
140 36 79 18 80 18 165 104 105 106 175 153 288 193 92 33 89 33 372 26 72 -2
149 16 225 54 28 13 76 32 107 41 31 9 60 21 63 27 4 5 23 9 43 7 33 -3 40 -8
59 -48z m1668 -406 c9 -4 29 -33 45 -65 43 -84 42 -160 -1 -212 -28 -34 -94
-77 -118 -77 -6 0 -34 -11 -63 -24 -29 -13 -68 -27 -87 -31 -19 -4 -48 -16
-65 -26 -17 -10 -39 -19 -49 -19 -9 0 -25 -4 -35 -9 -9 -5 -37 -14 -62 -21
-25 -7 -52 -18 -60 -25 -8 -7 -49 -22 -90 -35 -41 -12 -88 -28 -105 -35 -54
-25 -181 -65 -204 -65 -27 0 -91 32 -112 56 -34 40 -63 99 -69 141 -7 41 -5
46 24 68 17 13 70 36 116 50 47 15 103 35 125 46 22 10 56 22 75 25 19 4 55
17 80 30 25 12 73 30 105 39 33 9 71 24 84 32 13 8 54 23 92 34 38 11 86 28
106 39 20 10 60 24 88 30 28 6 67 22 86 35 34 24 64 30 94 19z m502 -931 c43
-25 94 -99 95 -140 2 -50 -42 -117 -96 -146 l-41 -22 -1026 -3 c-999 -2 -1027
-2 -1070 17 -72 32 -102 71 -107 139 -4 53 -2 60 29 99 33 41 69 59 129 65 14
2 484 3 1045 3 797 0 1025 -3 1042 -12z"/>
<path d="M4550 4163 c-19 -2 -73 -6 -119 -9 l-83 -6 4 -58 4 -58 -47 -22 c-53
-23 -67 -20 -108 24 -14 14 -28 26 -32 26 -8 0 -45 -38 -128 -130 -17 -19 -31
-39 -31 -46 0 -6 18 -27 39 -46 l40 -36 -16 -51 c-18 -55 -11 -51 -105 -55
-15 -1 -30 -4 -33 -8 -3 -3 -3 -58 1 -122 l7 -116 64 0 c62 0 64 0 69 -30 4
-16 13 -35 20 -41 22 -18 17 -30 -28 -76 l-43 -43 30 -26 c17 -14 48 -42 70
-61 22 -20 50 -45 63 -57 l22 -20 43 41 42 42 50 -13 50 -13 5 -64 5 -64 90 3
c50 1 105 5 123 8 32 5 32 5 32 63 l0 58 50 25 49 25 38 -39 c20 -21 41 -38
46 -38 8 0 77 71 140 145 l26 30 -40 40 -39 41 12 51 12 51 58 4 c32 2 60 7
64 10 3 4 2 58 -2 122 l-7 116 -63 0 c-45 0 -64 4 -64 13 0 7 -9 29 -20 50
l-20 37 40 42 c22 23 40 44 39 48 0 3 -41 41 -91 85 l-90 79 -37 -43 -37 -43
-57 18 -57 18 0 57 c0 32 -3 59 -7 61 -5 2 -24 2 -43 1z m60 -388 c73 -46 104
-108 98 -193 -13 -176 -212 -260 -347 -146 -39 33 -71 104 -71 159 0 49 34
128 66 156 21 18 78 45 109 52 38 8 110 -6 145 -28z"/>
<path d="M8674 3252 c-16 -11 -45 -44 -64 -73 -48 -78 -81 -128 -115 -176 -35
-49 -79 -113 -135 -198 -35 -53 -40 -67 -40 -119 0 -57 2 -61 45 -103 37 -35
52 -43 83 -43 60 0 108 30 165 102 29 36 60 79 69 95 23 35 65 101 99 150 127
186 142 237 95 311 -34 54 -49 63 -113 69 -46 3 -64 0 -89 -15z"/>
<path d="M9165 2691 c-101 -35 -627 -303 -662 -339 -30 -30 -33 -38 -33 -97 0
-53 4 -68 25 -93 33 -39 76 -56 128 -50 34 4 185 67 257 107 8 5 96 50 195
101 99 50 189 99 201 109 33 26 44 55 43 108 -1 70 -10 93 -49 123 -39 31 -75
41 -105 31z"/>
<path d="M8694 1950 c-60 -30 -86 -62 -91 -114 -9 -80 54 -152 157 -177 30 -7
75 -23 100 -35 25 -11 61 -24 80 -28 20 -3 69 -19 110 -35 41 -16 98 -32 125
-35 49 -7 53 -6 95 32 l45 40 0 75 c0 69 -2 78 -28 105 -26 27 -125 72 -192
88 -16 3 -61 19 -100 34 -69 27 -171 57 -230 66 -19 3 -45 -3 -71 -16z"/>
</g>
</svg>
